<?xml version="1.0" encoding="UTF-8" standalone="no"?><!DOCTYPE svg PUBLIC "-//W3C//DTD SVG 1.1//EN" "http://www.w3.org/Graphics/SVG/1.1/DTD/svg11.dtd"><svg width="100%" height="100%" viewBox="0 0 1080 205" version="1.1" xmlns="http://www.w3.org/2000/svg" xmlns:xlink="http://www.w3.org/1999/xlink" xml:space="preserve" xmlns:serif="http://www.serif.com/" style="fill-rule:evenodd;clip-rule:evenodd;stroke-linejoin:round;stroke-miterlimit:2;"><g id="TL"><path id="TL---program-your-business--program-your-business-" serif:id="TL - program your business (program your business)" d="M579.326,192.473c-4.706,-0 -8.886,-1.254 -12.542,-3.763c-3.655,-2.508 -6.066,-5.707 -7.233,-9.595l-0,-16.334c1.167,-3.889 3.578,-7.087 7.233,-9.596c3.656,-2.508 7.836,-3.762 12.542,-3.762c4.317,-0 8.186,1.05 11.608,3.15c3.422,2.1 5.853,4.939 7.292,8.517l-5.017,2.275c-1.011,-2.567 -2.751,-4.677 -5.221,-6.33c-2.469,-1.652 -5.357,-2.479 -8.662,-2.479c-3.383,0 -6.417,0.943 -9.1,2.829c-2.683,1.887 -4.395,4.23 -5.133,7.03l-0,13.066c0.738,2.8 2.45,5.143 5.133,7.029c2.683,1.887 5.717,2.83 9.1,2.83c3.305,-0 6.193,-0.837 8.662,-2.509c2.47,-1.672 4.21,-3.772 5.221,-6.3l5.017,2.275c-1.439,3.578 -3.87,6.417 -7.292,8.517c-3.422,2.1 -7.291,3.15 -11.608,3.15Z" style="fill:#999;fill-rule:nonzero;"/><path d="M626.051,174.681l10.442,15.575l-0,1.284l-5.425,-0l-10.909,-16.275l-10.266,-0l-0,16.275l-5.484,-0l0,-41.184l17.442,0c3.111,0 5.911,0.788 8.4,2.363c2.489,1.575 4.142,3.529 4.958,5.862l0,8.459c-0.622,1.75 -1.76,3.315 -3.412,4.695c-1.653,1.381 -3.568,2.363 -5.746,2.946Zm-16.158,-19.308l-0,15.05l11.608,-0c1.867,-0 3.558,-0.457 5.075,-1.371c1.517,-0.914 2.547,-2.071 3.092,-3.471l-0,-5.425c-0.545,-1.4 -1.575,-2.547 -3.092,-3.441c-1.517,-0.895 -3.208,-1.342 -5.075,-1.342l-11.608,-0Z" style="fill:#999;fill-rule:nonzero;"/><path d="M659.593,192.415c-3.967,-0 -7.419,-0.827 -10.355,-2.48c-2.936,-1.652 -4.929,-3.723 -5.979,-6.212l0,-33.367l5.484,0l-0,31.5c0.7,1.556 2.022,2.859 3.966,3.909c1.945,1.05 4.239,1.575 6.884,1.575c2.644,-0 4.938,-0.525 6.883,-1.575c1.944,-1.05 3.267,-2.353 3.967,-3.909l-0,-31.5l5.483,0l-0,33.367c-1.05,2.489 -3.053,4.56 -6.008,6.212c-2.956,1.653 -6.398,2.48 -10.325,2.48Z" style="fill:#999;fill-rule:nonzero;"/><path d="M699.959,150.356c4.784,0 9.061,1.284 12.834,3.85c3.772,2.567 6.261,5.795 7.466,9.684l0,14.058c-1.205,3.889 -3.694,7.126 -7.466,9.712c-3.773,2.587 -8.05,3.88 -12.834,3.88l-14.816,-0l-0,-41.184l14.816,0Zm14.759,26.075l-0,-10.966c-0.778,-2.839 -2.567,-5.221 -5.367,-7.146c-2.8,-1.925 -5.931,-2.888 -9.392,-2.888l-9.333,0l-0,31.034l9.333,-0c3.461,-0 6.592,-0.963 9.392,-2.888c2.8,-1.925 4.589,-4.307 5.367,-7.146Z" style="fill:#999;fill-rule:nonzero;"/><path d="M750.359,192.415c-2.994,-0 -5.658,-0.681 -7.991,-2.042c-2.334,-1.361 -3.909,-3.131 -4.725,-5.308l4.433,-2.042c0.7,1.478 1.789,2.644 3.267,3.5c1.477,0.855 3.15,1.283 5.016,1.283c3.5,0 5.756,-1.108 6.767,-3.325l-0,-2.625c-0.389,-1.089 -1.614,-2.003 -3.675,-2.741c-0.856,-0.273 -2.197,-0.535 -4.025,-0.788c-1.828,-0.253 -3.306,-0.554 -4.433,-0.904c-3.306,-1.089 -5.484,-2.897 -6.534,-5.425l0,-5.308c0.739,-1.867 2.188,-3.413 4.346,-4.638c2.158,-1.225 4.618,-1.837 7.379,-1.837c2.878,-0 5.435,0.661 7.671,1.983c2.236,1.322 3.743,3.033 4.521,5.133l-4.433,1.984c-1.517,-2.995 -4.142,-4.492 -7.875,-4.492c-1.634,-0 -3.034,0.301 -4.2,0.904c-1.167,0.603 -1.964,1.39 -2.392,2.363l-0,2.333c0.467,1.205 1.672,2.119 3.617,2.742c0.816,0.233 2.148,0.476 3.995,0.729c1.848,0.253 3.355,0.573 4.521,0.962c3.384,1.089 5.561,2.897 6.534,5.425l-0,5.659c-0.778,1.866 -2.246,3.412 -4.405,4.637c-2.158,1.225 -4.618,1.838 -7.379,1.838Z" style="fill:#999;fill-rule:nonzero;"/><path d="M783.726,160.156c3.383,0 6.368,0.943 8.954,2.829c2.586,1.887 4.326,4.268 5.221,7.146l-0,12.309c-0.895,2.916 -2.635,5.318 -5.221,7.204c-2.586,1.886 -5.571,2.829 -8.954,2.829c-4.2,-0 -7.603,-1.458 -10.208,-4.375l-0,13.358l-5.134,0l0,-40.366l4.9,-0l0,3.616c2.645,-3.033 6.125,-4.55 10.442,-4.55Zm9.042,20.884l-0,-9.45c-0.506,-1.828 -1.663,-3.384 -3.471,-4.667c-1.809,-1.283 -3.899,-1.925 -6.271,-1.925c-2.139,-0 -4.064,0.486 -5.775,1.458c-1.711,0.972 -2.956,2.217 -3.734,3.734l0,12.25c0.778,1.516 2.023,2.761 3.734,3.733c1.711,0.972 3.636,1.458 5.775,1.458c2.372,0 4.462,-0.641 6.271,-1.925c1.808,-1.283 2.965,-2.839 3.471,-4.666Z" style="fill:#999;fill-rule:nonzero;"/><path d="M817.851,160.74c1.128,-0 1.964,0.116 2.508,0.35l0,4.9l-1.983,-0c-2.45,-0 -4.424,0.544 -5.921,1.633c-1.497,1.089 -2.44,2.314 -2.829,3.675l-0,20.242l-5.134,-0l0,-30.45l4.9,-0l0,4.666c1.789,-3.344 4.609,-5.016 8.459,-5.016Z" style="fill:#999;fill-rule:nonzero;"/><path d="M847.951,181.681l4.783,1.984c-1.205,2.722 -3.082,4.861 -5.629,6.416c-2.547,1.556 -5.493,2.334 -8.837,2.334c-3.5,-0 -6.602,-0.943 -9.305,-2.83c-2.702,-1.886 -4.52,-4.268 -5.454,-7.145l0,-12.309c0.895,-2.916 2.674,-5.308 5.338,-7.175c2.664,-1.866 5.746,-2.8 9.246,-2.8c3.461,0 6.504,0.934 9.129,2.8c2.625,1.867 4.404,4.259 5.337,7.175l0,7.642l-23.975,-0l0,3.383c0.506,1.828 1.663,3.384 3.471,4.667c1.808,1.283 3.899,1.925 6.271,1.925c2.411,-0 4.433,-0.554 6.067,-1.663c1.633,-1.108 2.819,-2.576 3.558,-4.404Zm-9.917,-16.858c-2.294,-0 -4.326,0.642 -6.096,1.925c-1.769,1.283 -2.887,2.819 -3.354,4.608l0,2.159l18.9,-0l0,-2.159c-0.466,-1.828 -1.575,-3.373 -3.325,-4.637c-1.75,-1.264 -3.791,-1.896 -6.125,-1.896Z" style="fill:#999;fill-rule:nonzero;"/><path d="M871.109,160.156c3.15,0 5.921,0.749 8.313,2.246c2.391,1.497 4.034,3.374 4.929,5.629l-0,23.509l-4.842,-0l0,-3.267c-2.411,2.722 -5.658,4.083 -9.741,4.083c-2.762,0 -5.173,-0.525 -7.234,-1.575c-2.061,-1.05 -3.519,-2.411 -4.375,-4.083l0,-6.65c1.478,-3.267 5.464,-5.328 11.959,-6.183c5.561,-0.7 8.613,-1.459 9.158,-2.275l-0,-2.159c-0.583,-1.283 -1.585,-2.353 -3.004,-3.208c-1.42,-0.856 -3.141,-1.283 -5.163,-1.283c-2.061,-0 -3.918,0.534 -5.571,1.604c-1.652,1.069 -2.829,2.44 -3.529,4.112l-4.608,-2.1c1.05,-2.411 2.829,-4.414 5.337,-6.008c2.509,-1.595 5.299,-2.392 8.371,-2.392Zm8.167,23.567l-0,-8.108c-0.972,0.894 -3.714,1.691 -8.225,2.391c-4.356,0.661 -7,1.867 -7.933,3.617l-0,3.267c1.477,1.983 3.947,2.975 7.408,2.975c1.944,-0 3.694,-0.38 5.25,-1.138c1.555,-0.758 2.722,-1.76 3.5,-3.004Z" style="fill:#999;fill-rule:nonzero;"/><path d="M915.093,148.956l5.133,0l-0,42.584l-4.9,-0l-0,-3.675c-2.606,3.033 -6.106,4.55 -10.5,4.55c-3.383,-0 -6.368,-0.943 -8.954,-2.83c-2.586,-1.886 -4.307,-4.268 -5.163,-7.145l0,-12.309c0.856,-2.878 2.577,-5.259 5.163,-7.146c2.586,-1.886 5.571,-2.829 8.954,-2.829c4.239,0 7.661,1.439 10.267,4.317l-0,-15.517Zm-0,33.484l-0,-12.25c-0.817,-1.517 -2.071,-2.762 -3.763,-3.734c-1.692,-0.972 -3.607,-1.458 -5.746,-1.458c-2.411,-0 -4.521,0.632 -6.329,1.896c-1.808,1.264 -2.946,2.809 -3.412,4.637l-0,9.509c0.466,1.827 1.604,3.383 3.412,4.666c1.808,1.284 3.918,1.925 6.329,1.925c2.1,0 4.006,-0.486 5.717,-1.458c1.711,-0.972 2.975,-2.217 3.792,-3.733Z" style="fill:#999;fill-rule:nonzero;"/><path d="M938.484,192.415c-2.994,-0 -5.658,-0.681 -7.991,-2.042c-2.334,-1.361 -3.909,-3.131 -4.725,-5.308l4.433,-2.042c0.7,1.478 1.789,2.644 3.267,3.5c1.477,0.855 3.15,1.283 5.016,1.283c3.5,0 5.756,-1.108 6.767,-3.325l-0,-2.625c-0.389,-1.089 -1.614,-2.003 -3.675,-2.741c-0.856,-0.273 -2.197,-0.535 -4.025,-0.788c-1.828,-0.253 -3.306,-0.554 -4.433,-0.904c-3.306,-1.089 -5.484,-2.897 -6.534,-5.425l0,-5.308c0.739,-1.867 2.188,-3.413 4.346,-4.638c2.158,-1.225 4.618,-1.837 7.379,-1.837c2.878,-0 5.435,0.661 7.671,1.983c2.236,1.322 3.743,3.033 4.521,5.133l-4.433,1.984c-1.517,-2.995 -4.142,-4.492 -7.875,-4.492c-1.634,-0 -3.034,0.301 -4.2,0.904c-1.167,0.603 -1.964,1.39 -2.392,2.363l-0,2.333c0.467,1.205 1.672,2.119 3.617,2.742c0.816,0.233 2.148,0.476 3.995,0.729c1.848,0.253 3.355,0.573 4.521,0.962c3.384,1.089 5.561,2.897 6.534,5.425l-0,5.659c-0.778,1.866 -2.246,3.412 -4.405,4.637c-2.158,1.225 -4.618,1.838 -7.379,1.838Z" style="fill:#999;fill-rule:nonzero;"/><path d="M970.976,160.156c2.994,0 5.61,0.759 7.846,2.275c2.236,1.517 3.762,3.403 4.579,5.659l-0,23.45l-5.133,-0l-0,-21.934c-0.623,-1.4 -1.653,-2.518 -3.092,-3.354c-1.439,-0.836 -3.208,-1.254 -5.308,-1.254c-2.062,-0 -3.85,0.467 -5.367,1.4c-1.517,0.933 -2.47,2.061 -2.858,3.383l-0,21.759l-5.134,-0l0,-42.584l5.134,0l-0,15.05c2.45,-2.566 5.561,-3.85 9.333,-3.85Z" style="fill:#999;fill-rule:nonzero;"/><path d="M1014.14,181.681l4.783,1.984c-1.206,2.722 -3.082,4.861 -5.629,6.416c-2.548,1.556 -5.493,2.334 -8.838,2.334c-3.5,-0 -6.601,-0.943 -9.304,-2.83c-2.703,-1.886 -4.521,-4.268 -5.454,-7.145l-0,-12.309c0.894,-2.916 2.673,-5.308 5.337,-7.175c2.664,-1.866 5.746,-2.8 9.246,-2.8c3.461,0 6.504,0.934 9.129,2.8c2.625,1.867 4.405,4.259 5.338,7.175l-0,7.642l-23.975,-0l-0,3.383c0.505,1.828 1.662,3.384 3.471,4.667c1.808,1.283 3.898,1.925 6.271,1.925c2.411,-0 4.433,-0.554 6.066,-1.663c1.634,-1.108 2.82,-2.576 3.559,-4.404Zm-9.917,-16.858c-2.295,-0 -4.327,0.642 -6.096,1.925c-1.769,1.283 -2.887,2.819 -3.354,4.608l-0,2.159l18.9,-0l-0,-2.159c-0.467,-1.828 -1.575,-3.373 -3.325,-4.637c-1.75,-1.264 -3.792,-1.896 -6.125,-1.896Z" style="fill:#999;fill-rule:nonzero;"/><path d="M1048.38,181.681l4.784,1.984c-1.206,2.722 -3.082,4.861 -5.63,6.416c-2.547,1.556 -5.493,2.334 -8.837,2.334c-3.5,-0 -6.602,-0.943 -9.304,-2.83c-2.703,-1.886 -4.521,-4.268 -5.454,-7.145l-0,-12.309c0.894,-2.916 2.673,-5.308 5.337,-7.175c2.664,-1.866 5.746,-2.8 9.246,-2.8c3.461,0 6.504,0.934 9.129,2.8c2.625,1.867 4.404,4.259 5.338,7.175l-0,7.642l-23.975,-0l-0,3.383c0.505,1.828 1.662,3.384 3.47,4.667c1.809,1.283 3.899,1.925 6.271,1.925c2.411,-0 4.434,-0.554 6.067,-1.663c1.633,-1.108 2.819,-2.576 3.558,-4.404Zm-9.916,-16.858c-2.295,-0 -4.327,0.642 -6.096,1.925c-1.77,1.283 -2.888,2.819 -3.354,4.608l-0,2.159l18.9,-0l-0,-2.159c-0.467,-1.828 -1.575,-3.373 -3.325,-4.637c-1.75,-1.264 -3.792,-1.896 -6.125,-1.896Z" style="fill:#999;fill-rule:nonzero;"/><path d="M1073.06,191.948c-5.133,-0 -8.672,-1.925 -10.616,-5.775l-0,-20.825l-6.3,-0l-0,-4.258l3.85,-0c1.283,-0 2.1,-0.448 2.45,-1.342l-0,-8.283l5.133,-0l-0,9.625l8.808,-0l0,4.258l-8.808,-0l-0,18.55c0.972,2.178 3.053,3.267 6.242,3.267l2.741,-0l0,4.375c-1.011,0.272 -2.178,0.408 -3.5,0.408Z" style="fill:#999;fill-rule:nonzero;"/><g id="TL---Hyperfiddle" serif:id="TL - Hyperfiddle"><path d="M291.852,44.98c-8.459,0 -15.875,3.042 -21.459,8.792l-3.583,3.667l0,-41.292l-16.208,0l-0,108.375l16.208,0l0.125,-54.292c1.958,-5.166 8.875,-10.75 19.375,-10.75c11.125,0 17.542,5.667 19.625,10.5l0.208,0.834l0,53.708l16.167,0l-0,-58.5c-2.917,-10.5 -14.25,-21.042 -30.458,-21.042" style="fill:#333;fill-rule:nonzero;"/><path d="M395.602,47.605l-23.167,53.042l-22.166,-53.042l-16.709,-0l0,1.333l30.25,71.209l-12.666,29.125l-0,1.458l15.666,-0l44.917,-101.792l0,-1.333l-16.125,-0Z" style="fill:#333;fill-rule:nonzero;"/><path d="M485.268,98.688c-2.625,6.792 -10.875,14.125 -22.916,14.125c-11.125,0 -18.709,-5.833 -22.125,-11.291l-0.292,-0.5l0,-29.709l0.292,-0.5c3.333,-5.416 10.916,-11.166 22.125,-11.166c12.125,-0 20.25,7 22.916,13.958l0.167,0.75l-0.167,24.333Zm-18.875,-53.541c-9.708,-0 -17.791,3.375 -24.083,10l-3.625,3.75l0,-11.292l-14.958,0l-0,103.125l16.208,0l0,-36l3.542,3.458c6,5.834 13.708,8.834 22.916,8.834c16.167,-0 30.292,-9.834 35.209,-24.459l-0,-32.958c-4.917,-14.625 -19.042,-24.458 -35.209,-24.458" style="fill:#333;fill-rule:nonzero;"/><path d="M534.394,72.313c2.208,-6.708 10.125,-13.916 22.166,-13.916c11.875,-0 19.667,6.958 22.167,13.875l0.125,0.708l0,6.542l-44.583,-0l0.125,-7.209Zm60.166,18.292l0,-21.125c-5.5,-14.875 -20.291,-24.5 -37.833,-24.5c-17.917,-0 -32.833,9.625 -38.167,24.5l0,32.875c5.292,15 20.417,24.667 38.625,24.667c17.084,-0 30.542,-7.25 37.209,-19.917l-14.5,-5.625c-2.875,5.125 -9.25,11.958 -22.542,11.958c-12.5,0 -20.625,-7.291 -22.958,-14.041l-0.125,-0.667l-0,-8.125l60.291,-0Z" style="fill:#333;fill-rule:nonzero;"/><path d="M650.31,46.355c-9.041,-0 -15.833,4.375 -20.208,12.917l-3.958,7.708l-0,-19.375l-14.917,-0l0,76.917l16.167,-0l0.125,-48.084c1.125,-3.125 6.25,-13.25 24.333,-13.25l3.292,0l-0,-16.166c-1.375,-0.375 -3.25,-0.667 -4.834,-0.667" style="fill:#333;fill-rule:nonzero;"/><path d="M744.185,13.23c-4.541,-0 -8.375,1.792 -10.416,4.833l-0,9.125c2.041,3.042 5.875,4.834 10.416,4.834c4.667,-0 8.5,-1.75 10.417,-4.792l0,-9.208c-1.917,-3 -5.75,-4.792 -10.417,-4.792m-45.875,34.375l0.209,-12.5c1.041,-2.375 4.666,-7.833 15.125,-7.833l3.166,-0l0,-13.042c-2.166,-0.375 -4.333,-0.542 -6.833,-0.542c-13,0 -23.083,5.084 -27.833,14l-0,19.917l-15.417,-0l0,12.333l15.417,0l-0,64.584l16.166,-0l0,-64.584l38.25,0l0,64.584l16.167,-0l0,-76.917l-54.417,-0Z" style="fill:#333;fill-rule:nonzero;"/><path d="M834.144,100.855l-0.292,0.459c-3.292,5.5 -10.833,11.375 -22.125,11.375c-12.167,-0 -20.292,-7.125 -22.958,-14.167l-0.125,-0.75l0.166,-24.333c2.667,-6.959 10.792,-13.959 22.917,-13.959c11.208,0 18.75,5.75 22.083,11.167l0.334,0.5l-0,29.708Zm-0,-84.708l-0,40.875l-3.542,-3.333c-5.958,-5.709 -13.875,-8.709 -22.917,-8.709c-16.166,0 -30.291,9.834 -35.208,24.459l0,32.958c4.958,14.75 19.042,24.625 35.208,24.625c9.75,0 18,-3.458 23.917,-9.958l3.625,-4l0,11.458l15.083,0l0,-108.375l-16.166,0Z" style="fill:#333;fill-rule:nonzero;"/><path d="M929.56,100.855l-0.291,0.459c-3.292,5.5 -10.834,11.375 -22.125,11.375c-12.167,-0 -20.292,-7.125 -22.917,-14.167l-0.125,-0.75l0.125,-24.333c2.667,-6.959 10.792,-13.959 22.917,-13.959c11.208,0 18.791,5.75 22.125,11.167l0.291,0.5l0,29.708Zm0,-84.708l0,40.875l-3.5,-3.333c-6,-5.709 -13.916,-8.709 -22.916,-8.709c-16.209,0 -30.334,9.834 -35.25,24.459l-0,32.958c4.958,14.75 19.083,24.625 35.25,24.625c9.708,0 17.958,-3.458 23.875,-9.958l3.625,-4l-0,11.458l15.125,0l-0,-108.375l-16.209,0Z" style="fill:#333;fill-rule:nonzero;"/><rect x="966.267" y="16.146" width="16.167" height="108.375" style="fill:#333;"/><path d="M1017.39,72.313c2.208,-6.708 10.125,-13.916 22.166,-13.916c11.875,-0 19.667,6.958 22.167,13.875l0.125,0.708l0,6.542l-44.583,-0l0.125,-7.209Zm60.166,18.292l0,-21.125c-5.5,-14.875 -20.291,-24.5 -37.833,-24.5c-17.917,-0 -32.833,9.625 -38.167,24.5l0,32.875c5.292,15 20.417,24.667 38.625,24.667c17.084,-0 30.542,-7.25 37.209,-19.917l-14.5,-5.625c-2.875,5.125 -9.25,11.958 -22.542,11.958c-12.5,0 -20.667,-7.291 -22.958,-14.041l-0.125,-0.667l-0,-8.125l60.291,-0Z" style="fill:#333;fill-rule:nonzero;"/></g><g id="TL---Logo" serif:id="TL - Logo"><path d="M168.269,113.064l-75.167,36.458c-4.333,1.833 -9.208,1.833 -13.5,0l-75.208,-36.458c-3.709,-1.792 -3.709,-4.75 -0,-6.542l19.791,-9.625l55.417,26.875c4.292,1.833 9.167,1.833 13.5,0l55.375,-26.833l19.792,9.583c3.75,1.792 3.75,4.75 -0,6.542" style="fill:#b7a4c2;fill-rule:nonzero;"/><path d="M93.096,2.423l75.179,36.462c3.729,1.808 3.729,4.746 -0,6.554l-75.175,36.454c-4.321,1.813 -9.188,1.813 -13.508,0l-75.188,-36.47c-3.729,-1.809 -3.729,-4.742 0,-6.55l75.171,-36.459c4.325,-1.808 9.196,-1.804 13.521,0.009" style="fill:#d7ccde;fill-rule:nonzero;"/></g></g></svg>